<svg width="12" height="15" viewBox="0 0 12 15" fill="none" xmlns="http://www.w3.org/2000/svg">
<path fill-rule="evenodd" clip-rule="evenodd" d="M5.90625 13.625C3.12725 13.625 0.875 11.2804 0.875 8.64844C0.875 8.03725 0.888563 7.54112 1.3125 7.0625C1.26656 7.33988 1.92368 9.71156 4.07093 9.58731C3.97775 7.78525 3.49038 3.37044 5.754 1.84444C5.55407 4.24369 6.14162 7.46675 8.76268 7.9375C8.61262 6.97544 8.63056 5.37507 9.30431 5.07932C9.37694 6.55325 10.4668 7.46238 10.4668 8.879C10.4668 11.4445 7.98481 13.625 5.90625 13.625ZM10.0209 3.54194C8.1025 4.08881 7.75119 5.63975 7.875 6.625C6.5065 5.01587 6.5625 3.16569 6.5625 0.5C2.1735 2.15506 3.19419 6.926 3.0625 8.375C1.95869 7.47156 1.75 5.3125 1.75 5.3125C0.5845 5.91231 0 7.51356 0 8.8125C0 11.9537 2.54625 14.5 5.6875 14.5C8.82875 14.5 11.375 11.9537 11.375 8.8125C11.375 6.94569 10.0043 6.08469 10.0209 3.54194Z" fill="#131313"/>
</svg>
