<svg width="13" height="12" viewBox="0 0 13 12" fill="none" xmlns="http://www.w3.org/2000/svg">
<path d="M6.16111 1.17648C6.29837 0.868522 6.36703 0.714544 6.46261 0.667128C6.54562 0.625931 6.6431 0.625931 6.72611 0.667128C6.82169 0.714544 6.89035 0.868522 7.02761 1.17648L8.12097 3.62938C8.16159 3.72042 8.18187 3.76594 8.21329 3.8008C8.24104 3.83164 8.27502 3.85631 8.3129 3.8732C8.35577 3.89229 8.40534 3.89752 8.50448 3.90798L11.1752 4.18986C11.5105 4.22525 11.6781 4.24294 11.7528 4.31919C11.8176 4.38541 11.8477 4.47815 11.8342 4.56984C11.8187 4.67538 11.6934 4.78821 11.443 5.01394L9.44795 6.81182C9.37395 6.87852 9.33689 6.9119 9.31347 6.95252C9.29272 6.98851 9.27973 7.02841 9.27541 7.06968C9.27048 7.11634 9.2808 7.16508 9.30149 7.26262L9.85873 9.88971C9.92869 10.2196 9.96368 10.3844 9.91423 10.479C9.87124 10.5611 9.79238 10.6184 9.70101 10.6339C9.59582 10.6517 9.44979 10.5675 9.15771 10.399L6.83135 9.05724C6.74502 9.00743 6.70186 8.98259 6.65597 8.9728C6.61535 8.96421 6.57337 8.96421 6.53276 8.9728C6.48686 8.98259 6.4437 9.00743 6.35737 9.05724L4.03103 10.399C3.73896 10.5675 3.59293 10.6517 3.48774 10.6339C3.39636 10.6184 3.31748 10.5611 3.27453 10.479C3.22508 10.3844 3.26006 10.2196 3.33002 9.88971L3.88723 7.26262C3.90791 7.16508 3.91825 7.11634 3.91334 7.06968C3.90899 7.02841 3.89603 6.98851 3.87527 6.95252C3.85182 6.9119 3.8148 6.87852 3.74076 6.81182L1.74578 5.01394C1.49533 4.78821 1.37009 4.67538 1.35452 4.56984C1.341 4.47815 1.37113 4.38541 1.43596 4.31919C1.5106 4.24294 1.67825 4.22525 2.01355 4.18986L4.68427 3.90798C4.7834 3.89752 4.83295 3.89229 4.87581 3.8732C4.91373 3.85631 4.94768 3.83164 4.97547 3.8008C5.00686 3.76594 5.02715 3.72042 5.06774 3.62938L6.16111 1.17648Z" stroke="#484235" stroke-linecap="round" stroke-linejoin="round"/>
</svg>
